<svg xmlns="http://www.w3.org/2000/svg" viewBox="0 0 64 64" role="img" aria-label="Word Adventure">
    <defs>
        <linearGradient id="sky" x1="10" y1="8" x2="54" y2="58" gradientUnits="userSpaceOnUse">
            <stop offset="0" stop-color="#4fb3ff"/>
            <stop offset="0.55" stop-color="#7d6cff"/>
            <stop offset="1" stop-color="#ff8fb5"/>
        </linearGradient>
        <linearGradient id="leaf" x1="18" y1="18" x2="48" y2="50" gradientUnits="userSpaceOnUse">
            <stop offset="0" stop-color="#9be15d"/>
            <stop offset="1" stop-color="#2f9e6b"/>
        </linearGradient>
    </defs>
    <rect width="64" height="64" rx="16" fill="url(#sky)"/>
    <path d="M15 42c10-5 24-5 34 0v7c-10-5-24-5-34 0z" fill="#fff6cf"/>
    <path d="M15 19c10-4 20-1 25 7v22c-6-6-15-8-25-4z" fill="#fff"/>
    <path d="M49 19c-10-4-20-1-25 7v22c6-6 15-8 25-4z" fill="#f0f6ff"/>
    <path d="M32 24c5-7 11-8 17-5v25c-7-3-13-1-17 4z" fill="#dff0ff"/>
    <path d="M32 24c-5-7-11-8-17-5v25c7-3 13-1 17 4z" fill="#ffffff"/>
    <path d="M31 20c-1-8 4-13 11-14 1 8-4 13-11 14z" fill="url(#leaf)"/>
    <path d="M32 22c-7-2-11-8-10-16 8 1 12 7 10 16z" fill="#55c779"/>
    <path d="M29 28h6v20h-6z" fill="#8a5a2b"/>
    <path d="M21 31h7v4h-7zm15 0h7v4h-7zm-15 8h7v4h-7zm15 0h7v4h-7z" fill="#7d6cff" opacity="0.85"/>
    <path d="M48 10l2 5 5 2-5 2-2 5-2-5-5-2 5-2z" fill="#ffd24a"/>
</svg>
